<?xml version="1.0" standalone="no"?>
<!DOCTYPE svg PUBLIC "-//W3C//DTD SVG 20010904//EN"
 "http://www.w3.org/TR/2001/REC-SVG-20010904/DTD/svg10.dtd">
<svg version="1.0" xmlns="http://www.w3.org/2000/svg"
 width="768.000000pt" height="768.000000pt" viewBox="0 0 768.000000 768.000000"
 preserveAspectRatio="xMidYMid meet">
<metadata>
Created by potrace 1.11, written by Peter Selinger 2001-2013
</metadata>
<g transform="translate(0.000000,768.000000) scale(0.100000,-0.100000)"
fill="#000000" stroke="none">
<path d="M4116 6930 c56 -84 32 -224 -61 -360 -56 -83 -174 -204 -283 -290
-241 -191 -302 -252 -375 -372 -60 -100 -85 -194 -82 -313 2 -103 6 -129 29
-197 11 -29 11 -40 3 -42 -51 -14 -208 -77 -278 -112 -116 -58 -278 -168 -366
-249 l-72 -66 -28 18 -28 18 18 -29 c19 -28 19 -28 -5 -55 -75 -81 -91 -101
-125 -151 -21 -30 -40 -57 -44 -60 -24 -21 -129 -227 -177 -350 -24 -60 -68
-222 -78 -284 -3 -21 -7 -48 -10 -60 -15 -78 -19 -236 -10 -366 7 -106 10
-126 40 -275 8 -37 47 -160 69 -215 79 -199 198 -388 340 -537 43 -45 44 -52
1 -111 -18 -24 -13 -30 8 -9 7 7 24 20 37 29 23 16 25 15 95 -44 90 -77 228
-168 331 -220 145 -74 322 -134 450 -154 17 -2 41 -7 55 -10 29 -7 152 -17
193 -17 15 1 28 -4 28 -11 1 -6 3 -24 4 -41 2 -16 5 -43 8 -60 4 -16 8 -55 12
-85 3 -30 7 -64 9 -75 3 -11 5 -39 5 -62 1 -24 5 -43 9 -43 5 0 9 6 9 13 1 27
14 158 18 178 2 11 7 46 10 77 9 83 10 91 21 101 5 5 46 12 91 15 45 3 87 8
95 10 7 3 31 7 53 10 260 35 599 202 824 405 18 17 36 31 38 31 3 0 23 -14 44
-31 45 -35 50 -30 14 17 -31 41 -31 46 3 81 37 37 148 177 181 228 88 137 159
287 209 445 71 221 87 580 36 815 -8 39 -17 81 -20 94 -23 114 -134 365 -216
492 -54 81 -125 173 -176 226 -23 23 -23 63 -1 63 5 0 9 5 9 11 0 7 -10 5 -25
-5 -13 -9 -26 -16 -28 -16 -2 0 -26 21 -53 46 -145 135 -335 254 -524 329 -52
21 -96 39 -98 40 -1 1 11 30 28 63 79 153 61 300 -56 459 -44 59 -64 70 -37
21 28 -52 25 -209 -5 -268 -51 -103 -153 -197 -287 -265 -94 -48 -119 -52
-149 -22 -21 21 -23 29 -16 63 4 21 11 47 15 58 21 49 -76 -37 -105 -94 -33
-64 -44 -179 -25 -257 5 -21 7 -21 48 -9 54 16 188 13 242 -6 44 -15 34 -19
158 58 l33 21 100 -33 c114 -38 252 -104 345 -166 35 -23 66 -45 69 -48 3 -3
21 -17 40 -32 19 -15 50 -40 68 -55 l33 -28 -144 -98 -145 -98 -42 -121 c-23
-66 -39 -122 -37 -125 5 -4 245 81 252 89 1 2 37 55 80 118 123 180 103 168
161 98 257 -310 378 -707 340 -1108 -7 -66 -12 -98 -32 -198 -22 -108 -100
-300 -173 -422 -42 -72 -161 -233 -180 -245 -5 -3 -52 57 -104 133 l-95 139
-119 43 c-65 23 -123 45 -130 47 -9 4 53 -193 76 -237 4 -8 72 -59 150 -113
l141 -98 -57 -48 c-137 -114 -308 -212 -475 -271 -136 -47 -209 -63 -351 -77
l-59 -5 6 48 c12 113 18 160 22 184 2 14 7 51 10 82 3 31 7 67 9 78 2 12 7 51
11 88 3 36 8 75 10 87 2 11 6 45 9 75 6 55 13 112 20 160 2 14 6 52 10 85 3
33 8 74 10 90 2 17 7 53 10 80 4 28 8 64 11 80 2 17 6 53 9 80 3 28 8 66 11
85 2 19 6 58 9 85 2 28 6 59 9 70 7 37 19 158 20 210 l1 50 -50 27 c-101 54
-333 54 -439 1 -38 -20 -69 -49 -63 -60 3 -4 8 -35 12 -68 4 -33 8 -71 10 -85
2 -14 7 -54 10 -90 4 -35 9 -73 11 -84 3 -18 12 -86 19 -146 5 -49 16 -136 25
-195 4 -33 8 -67 9 -75 0 -8 3 -31 6 -50 6 -41 12 -88 20 -150 3 -25 7 -58 10
-75 8 -55 16 -119 20 -160 7 -65 16 -137 21 -159 2 -11 6 -50 10 -86 3 -36 8
-74 10 -85 4 -18 12 -80 19 -147 2 -26 -3 -30 -35 -30 -20 0 -149 14 -169 18
-284 60 -488 154 -700 323 l-62 50 34 23 c234 158 266 182 276 207 5 14 26 72
45 129 30 88 33 102 18 98 -9 -3 -68 -25 -130 -49 l-112 -43 -99 -146 -99
-146 -34 37 c-82 87 -171 220 -232 344 -239 491 -189 1082 129 1526 69 96 135
169 141 155 2 -5 47 -71 99 -146 90 -130 98 -138 147 -156 29 -11 84 -32 122
-46 77 -29 94 -32 78 -13 -6 7 -13 24 -16 37 -3 14 -14 49 -25 78 -11 29 -20
54 -20 55 0 6 -13 44 -20 56 -6 12 -195 148 -286 206 -13 8 -5 19 45 60 162
132 409 262 553 291 10 2 26 6 36 9 11 3 28 -10 56 -45 46 -58 60 -64 40 -17
-13 32 -13 63 0 137 8 38 12 84 16 145 3 55 66 188 136 288 72 103 238 270
368 372 108 84 133 109 174 170 150 224 122 468 -80 696 -60 68 -81 77 -43 19z"/>
<path d="M4105 5873 c-27 -20 -55 -42 -60 -47 -28 -28 -74 -106 -88 -148 -17
-49 -28 -133 -19 -142 6 -7 56 27 100 68 59 55 105 134 119 206 8 44 11 100 5
100 -4 0 -29 -17 -57 -37z"/>
<path d="M2800 5409 c-170 -106 -308 -220 -445 -370 -78 -86 -173 -215 -238
-325 -3 -6 13 -30 37 -53 l43 -42 48 78 c156 252 423 510 660 636 64 34 63 33
20 77 -21 22 -44 40 -50 39 -5 0 -39 -18 -75 -40z"/>
<path d="M4746 5389 c-22 -21 -37 -41 -35 -43 2 -2 36 -23 74 -47 126 -78 218
-151 335 -269 127 -126 204 -224 285 -361 l53 -89 41 42 c22 24 41 46 41 49 0
14 -115 187 -177 267 -84 108 -240 263 -342 341 -87 67 -215 151 -228 151 -4
-1 -26 -19 -47 -41z"/>
<path d="M3737 4954 c-1 -1 -34 -5 -73 -7 -38 -3 -81 -8 -95 -11 -13 -3 -37
-8 -54 -10 -94 -15 -208 -48 -287 -83 -52 -23 -58 -29 -59 -57 0 -17 -1 -53
-2 -79 -3 -64 4 -72 39 -54 65 33 242 80 389 102 90 14 382 13 480 -1 125 -17
275 -55 350 -89 32 -14 59 -25 61 -25 2 0 4 40 4 89 l0 88 -70 32 c-110 49
-230 79 -391 97 -52 6 -287 12 -292 8z"/>
<path d="M3757 4634 c-1 -1 -42 -4 -92 -7 -98 -7 -112 -9 -190 -31 -68 -20
-88 -43 -81 -92 3 -22 8 -75 11 -119 3 -44 8 -103 10 -132 4 -47 2 -52 -18
-58 -12 -3 -38 -13 -57 -21 -38 -16 -35 -5 -31 -137 1 -24 4 -26 20 -18 48 26
238 78 317 87 27 3 63 7 79 9 27 4 171 6 220 4 101 -4 365 -70 402 -100 8 -7
11 10 12 65 l1 76 -38 19 c-37 19 -43 21 -63 21 -9 0 -8 43 6 170 2 19 7 70
10 112 l7 77 -39 19 c-44 23 -122 41 -208 48 -56 5 -274 11 -278 8z"/>
<path d="M2082 4518 c-7 -7 -12 -17 -12 -23 0 -6 -20 -38 -43 -70 -40 -55 -61
-76 -154 -157 -63 -54 -150 -106 -233 -137 -47 -18 -104 -41 -127 -52 -24 -10
-45 -19 -48 -19 -3 0 -115 -43 -248 -96 -133 -53 -305 -121 -382 -152 -77 -30
-141 -56 -143 -57 -1 -1 143 -60 320 -130 178 -70 337 -133 353 -140 17 -7
102 -41 190 -75 153 -59 228 -95 257 -123 7 -6 35 -30 63 -52 94 -76 169 -166
206 -249 7 -16 8 -11 4 19 -6 50 -14 93 -21 125 -3 14 -8 36 -10 50 -2 14 -7
36 -10 50 -3 14 -8 36 -10 50 -3 14 -12 61 -20 105 -9 44 -18 94 -21 110 -7
45 50 23 -433 165 -151 45 -282 84 -290 87 -18 6 4 16 104 43 39 11 150 42
246 70 96 28 180 52 185 54 6 2 24 6 40 10 17 4 37 10 45 13 18 8 18 7 57 17
34 8 42 23 59 121 11 63 11 66 27 145 17 81 24 118 32 165 3 17 12 56 19 88 7
31 13 57 12 57 -1 0 -7 -5 -14 -12z"/>
<path d="M5554 4488 c2 -18 7 -42 9 -53 2 -11 7 -36 11 -55 3 -19 8 -46 11
-60 14 -67 17 -87 20 -105 2 -11 11 -58 20 -105 9 -47 19 -96 22 -110 2 -14 7
-28 11 -31 7 -6 126 -44 167 -54 11 -2 61 -16 110 -30 50 -15 131 -38 180 -51
50 -14 97 -28 105 -31 17 -7 14 -6 95 -28 56 -15 76 -24 62 -26 -16 -3 -24 -5
-57 -16 -19 -7 -174 -53 -345 -103 -170 -51 -313 -95 -317 -99 -4 -3 -9 -17
-12 -31 -3 -14 -10 -50 -15 -80 -6 -30 -13 -66 -16 -80 -3 -14 -8 -38 -11 -55
-14 -81 -55 -288 -60 -303 -6 -20 -7 -22 70 94 26 41 74 95 105 121 31 26 65
56 76 66 54 49 150 92 606 273 272 108 507 201 523 206 l29 11 -49 19 c-27 10
-60 24 -74 30 -14 6 -34 14 -45 18 -156 61 -598 236 -623 247 -18 8 -61 25
-95 37 -151 56 -176 69 -247 122 -100 75 -209 189 -238 247 -27 55 -36 59 -28
15z"/>
<path d="M2762 4403 c-58 -92 -133 -272 -147 -352 -3 -19 -8 -38 -11 -42 -2
-4 -7 -29 -10 -56 -3 -26 -8 -59 -10 -73 -5 -36 -4 -229 1 -270 15 -113 32
-185 68 -285 20 -58 92 -209 109 -230 5 -5 23 -32 40 -58 l31 -49 29 30 30 29
-35 51 c-162 229 -231 554 -182 852 16 102 89 317 114 340 4 3 18 28 33 56
l27 50 -23 27 c-13 15 -26 27 -29 27 -3 0 -18 -21 -35 -47z"/>
<path d="M4847 4424 c-15 -13 -27 -29 -27 -33 0 -5 16 -35 35 -67 115 -190
170 -474 141 -718 -4 -33 -9 -62 -11 -65 -1 -3 -6 -24 -9 -46 -16 -101 -102
-304 -171 -400 l-34 -49 31 -27 31 -28 40 62 c45 70 127 228 127 246 0 6 4 19
10 29 15 27 47 150 60 231 19 113 15 378 -5 411 -3 5 -8 26 -10 47 -9 78 -78
255 -147 375 l-34 58 -27 -26z"/>
<path d="M5440 2848 c-11 -26 -15 -32 -84 -138 -91 -139 -235 -301 -352 -395
-27 -22 -58 -48 -68 -57 -17 -16 -116 -81 -200 -132 l-28 -18 42 -43 42 -43
52 31 c255 154 532 439 676 695 l24 42 -39 40 c-45 46 -52 48 -65 18z"/>
<path d="M2148 2791 l-37 -39 36 -58 c116 -188 310 -401 483 -530 52 -39 106
-77 120 -85 14 -8 27 -17 30 -20 3 -3 26 -17 52 -31 l47 -26 41 41 c42 44 48
57 27 57 -19 0 -210 127 -297 197 -149 120 -326 325 -412 475 -18 32 -37 57
-43 58 -5 0 -27 -18 -47 -39z"/>
<path d="M3146 2755 c-14 -14 -26 -29 -26 -33 0 -8 94 -65 175 -105 115 -57
372 -126 381 -103 5 12 -1 65 -8 71 -2 2 -16 5 -33 8 -142 24 -342 101 -436
168 l-28 19 -25 -25z"/>
<path d="M4460 2761 c-89 -65 -311 -153 -418 -166 -30 -3 -34 -8 -39 -50 -4
-41 0 -42 97 -20 144 34 280 90 398 165 l53 33 -28 29 c-31 33 -31 33 -63 9z"/>
<path d="M3060 2004 c0 -1 34 -23 75 -48 75 -47 170 -143 246 -248 27 -37 82
-163 184 -423 81 -203 150 -379 155 -390 5 -11 19 -45 30 -75 24 -60 28 -70
59 -144 12 -27 21 -55 21 -62 0 -8 5 -14 10 -14 6 0 10 8 10 18 0 10 7 27 15
39 8 12 16 29 18 40 2 10 8 27 12 38 4 11 23 58 42 105 19 47 38 94 43 105 5
11 52 130 105 265 52 135 100 254 104 265 5 11 21 52 36 90 24 64 72 149 99
178 6 7 35 40 65 75 54 64 150 139 212 167 l34 16 -40 -7 c-22 -3 -51 -8 -65
-11 -33 -6 -329 -64 -355 -69 -11 -3 -38 -7 -60 -10 -40 -6 -70 -22 -60 -32 3
-3 1 -10 -4 -16 -6 -7 -12 -23 -15 -36 -3 -14 -14 -54 -25 -90 -10 -36 -30
-103 -44 -150 -14 -47 -44 -146 -67 -220 -44 -145 -48 -158 -49 -177 -2 -33
-19 -7 -33 50 -9 34 -46 166 -83 292 -37 127 -68 235 -69 240 -1 6 -10 36 -19
67 -17 58 -23 62 -82 72 -17 3 -89 17 -160 31 -72 14 -147 28 -167 31 -20 3
-68 13 -107 23 -39 10 -71 17 -71 15z"/>
</g>
</svg>
